<svg width="104" height="104" viewBox="0 0 104 104" fill="none" xmlns="http://www.w3.org/2000/svg">
<path d="M32.8736 101.558C31.7594 101.558 30.7243 101.297 29.8073 100.768C27.6192 99.5089 26.4079 96.9116 26.3975 93.4525L26.2735 49.8718C26.2556 42.9775 31.1246 34.5508 37.1272 31.0842L75.0444 9.19299C78.0749 7.44253 80.9589 7.17817 83.159 8.44472C85.347 9.70379 86.5583 12.3026 86.5688 15.7647L86.6912 59.3469C86.7107 66.2398 81.8476 74.665 75.8494 78.1285L37.9308 100.02C36.1594 101.043 34.4373 101.558 32.8736 101.558ZM75.6568 10.2534L37.7396 32.1446C32.0745 35.414 27.4803 43.3658 27.4982 49.8688L27.6222 93.4495C27.6296 96.4531 28.6229 98.6755 30.4166 99.7076C32.2268 100.747 34.6763 100.484 37.3184 98.9593L75.2371 77.0681C80.8962 73.8017 85.4859 65.8529 85.4665 59.3499L85.344 15.7677C85.3366 12.7611 84.3433 10.5372 82.5496 9.50515C80.7409 8.46413 78.2944 8.72849 75.6568 10.2534Z" fill="#C2A95B"/>
<path d="M30.1016 100.838C29.997 100.838 29.8925 100.811 29.7954 100.756C29.7865 100.75 29.7775 100.746 29.7685 100.74L20.8251 95.5525C18.6489 94.2815 17.4436 91.6886 17.4272 88.2489L17.3047 44.6532C17.2987 41.9125 18.056 38.8672 19.4913 35.8457C19.5645 35.6918 19.6989 35.5753 19.8632 35.5246C20.026 35.4723 20.2052 35.4947 20.3516 35.5798L29.322 40.7969C29.5968 40.9567 29.7028 41.3002 29.5669 41.5884C28.2092 44.4471 27.4953 47.3103 27.5013 49.8673L27.6223 93.4451C27.6357 96.4337 28.6155 98.6487 30.3839 99.6822L30.4078 99.6971C30.7005 99.8659 30.8006 100.239 30.6318 100.532C30.5183 100.728 30.3122 100.838 30.1016 100.838ZM18.5294 44.6503L18.6519 88.2445C18.6654 91.2316 19.6556 93.4525 21.4404 94.495L27.2608 97.8705C26.7022 96.6443 26.4065 95.1507 26.3976 93.4495L26.2766 49.8703C26.2721 47.2864 26.9442 44.4277 28.2257 41.575L20.3187 36.9763C19.1403 39.6319 18.5235 42.2725 18.5294 44.6503Z" fill="#C2A95B"/>
<path d="M29.0156 41.9379C28.908 41.9379 28.802 41.9095 28.7079 41.8543L19.7375 36.6372C19.4627 36.4774 19.3567 36.1324 19.4926 35.8457C21.5657 31.4889 24.7275 27.8536 28.1687 25.8746L66.0799 3.9864C69.1163 2.22548 72.0079 1.96112 74.2169 3.24111L83.1887 8.45814C83.4799 8.62691 83.58 9.0003 83.4112 9.29304C83.241 9.58727 82.8646 9.68286 82.5763 9.51707C80.7572 8.47457 78.3018 8.73146 75.6611 10.2489L37.7365 32.1521C34.5089 34.0131 31.5322 37.4527 29.5682 41.5884C29.495 41.7423 29.3606 41.8588 29.1963 41.9095C29.138 41.929 29.0768 41.9379 29.0156 41.9379ZM20.8443 35.8666L28.7557 40.4668C30.8228 36.3774 33.8458 32.9825 37.1241 31.0916L75.0503 9.18849C76.5707 8.31475 78.0553 7.81292 79.4354 7.69044L73.6045 4.29855C71.7883 3.24708 69.3329 3.51443 66.6938 5.04534L28.7796 26.935C25.6804 28.7169 22.8113 31.9534 20.8443 35.8666Z" fill="#C2A95B"/>
<path d="M47.4893 81.2247C45.4551 81.2247 43.5702 80.7482 41.9034 79.7894C37.8961 77.4833 35.6782 72.6845 35.6603 66.2771C35.6229 53.2771 44.7994 37.3855 56.1176 30.8512C61.7335 27.6087 67.0461 27.0993 71.0757 29.4174C75.0785 31.7204 77.2934 36.5208 77.3114 42.9341C77.3472 55.9401 68.1737 71.8331 56.8614 78.3645C53.5681 80.2658 50.3779 81.2247 47.4893 81.2247ZM65.4957 29.2098C62.8208 29.2098 59.8366 30.1164 56.73 31.9116C45.7508 38.2503 36.8477 53.6654 36.885 66.2741C36.9014 72.226 38.8998 76.6499 42.5128 78.7289C46.1526 80.8229 51.0291 80.3166 56.2491 77.3041C67.2238 70.9699 76.1225 55.5518 76.0866 42.9371C76.0702 36.9793 74.0733 32.5553 70.4648 30.4778C68.9922 29.6309 67.3164 29.2098 65.4957 29.2098Z" fill="#C2A95B"/>
<path d="M65.72 51.2535C66.5232 51.8959 66.9271 53.0757 66.9319 54.7927C66.9368 56.5033 66.5409 58.1448 65.744 59.7109C64.9418 61.2865 63.8102 62.4961 62.3382 63.3459C60.8661 64.1958 59.7314 64.2947 58.9227 63.6492C58.1197 63.0067 57.7158 61.827 57.711 60.1164C57.7061 58.3994 58.102 56.7579 58.8987 55.1918C59.7011 53.6161 60.8327 52.4066 62.3047 51.5567C63.7768 50.7068 64.9115 50.6079 65.72 51.2535ZM64.2511 59.0448C64.7046 58.0797 64.9297 57.0483 64.9266 55.9504C64.9235 54.8526 64.6933 54.084 64.2358 53.6449C63.7727 53.209 63.133 53.2267 62.3108 53.7014C61.4887 54.176 60.8508 54.8959 60.3918 55.8642C59.9383 56.8293 59.7132 57.8608 59.7163 58.9586C59.7194 60.0565 59.9496 60.825 60.4071 61.2641C60.8701 61.7002 61.51 61.6823 62.3321 61.2077C63.1542 60.733 63.792 60.0132 64.2511 59.0448Z" fill="#C2A95B"/>
<path d="M63.2783 39.8827C63.2789 40.1253 63.2075 40.4095 63.0748 40.729L51.5644 68.7092C51.465 68.9392 51.3432 69.1566 51.1936 69.3516C51.0383 69.55 50.8773 69.7005 50.7053 69.7998C50.4553 69.9442 50.2383 69.9607 50.0433 69.8687C49.8538 69.7672 49.7587 69.5663 49.7578 69.2536C49.7573 69.0557 49.8012 68.8449 49.895 68.6181L61.4995 40.4494C61.6873 39.9893 61.9534 39.6567 62.2978 39.4578C62.5867 39.291 62.8202 39.2457 63.0041 39.3185C63.1822 39.3883 63.2774 39.5763 63.2783 39.8827Z" fill="#C2A95B"/>
<path d="M54.0777 54.0819C53.2755 55.6575 52.1438 56.8672 50.6719 57.717C49.1998 58.5668 48.065 58.6658 47.2564 58.0202C46.4535 57.3778 46.044 56.2012 46.0391 54.4842C46.0343 52.7736 46.4357 51.1289 47.2324 49.5565C48.0347 47.9872 49.1664 46.7776 50.6385 45.9277C52.1103 45.0779 53.2452 44.9789 54.0537 45.6182C54.8567 46.267 55.2608 47.4467 55.2656 49.1573C55.2705 50.8743 54.8744 52.5159 54.0777 54.0819ZM48.7408 55.6288C49.2038 56.0648 49.8437 56.047 50.6658 55.5723C51.4878 55.0977 52.1257 54.3778 52.5792 53.4127C53.0382 52.4444 53.2634 51.4129 53.2603 50.315C53.2572 49.2172 53.0268 48.4487 52.5639 48.0127C52.1064 47.5736 51.4665 47.5914 50.6445 48.066C49.8224 48.5407 49.1845 49.2606 48.7255 50.2288C48.272 51.1939 48.0467 52.2255 48.0498 53.3233C48.0529 54.4212 48.2833 55.1896 48.7408 55.6288Z" fill="#C2A95B"/>
</svg>
