<svg width="104" height="104" viewBox="0 0 104 104" fill="none" xmlns="http://www.w3.org/2000/svg">
<path d="M53.1909 12.0853L53.1908 12.0853C53.0759 12.1517 52.9506 12.183 52.8263 12.183C52.573 12.183 52.3276 12.0515 52.1919 11.8173C51.99 11.4676 52.1098 11.0207 52.4598 10.8185C52.4598 10.8185 52.4598 10.8185 52.4598 10.8185L55.0506 9.32289L55.0506 9.32289L55.0517 9.32223C55.3963 9.12086 55.8461 9.23977 56.0497 9.59097C56.2515 9.9407 56.1316 10.3875 55.7817 10.5896C55.7817 10.5896 55.7817 10.5896 55.7817 10.5896L53.1909 12.0853Z" fill="#C2A95B" stroke="#313132" stroke-width="0.5"/>
<path d="M59.5255 30.8446L59.5266 30.844C59.8731 30.6416 60.3208 30.7606 60.5245 31.1125C60.7265 31.4622 60.6067 31.9092 60.2566 32.1114C60.2566 32.1114 60.2566 32.1114 60.2566 32.1114L43.5151 41.777L43.5151 41.7771C43.1672 41.978 42.7187 41.8599 42.5162 41.5092L42.5162 41.5092C42.3142 41.1594 42.4339 40.7125 42.784 40.5103C42.784 40.5103 42.784 40.5103 42.784 40.5103L59.5255 30.8446Z" fill="#C2A95B" stroke="#313132" stroke-width="0.5"/>
<path d="M59.5255 39.1593L59.5263 39.1589C59.8733 38.9569 60.321 39.0757 60.5245 39.4272C60.7265 39.7769 60.6067 40.2239 60.2566 40.4261C60.2566 40.4261 60.2566 40.4261 60.2566 40.4261L43.5151 50.0917L43.5151 50.0918C43.1672 50.2927 42.7187 50.1746 42.5162 49.8239L42.5162 49.8239C42.3142 49.4741 42.4339 49.0272 42.784 48.825C42.784 48.825 42.784 48.825 42.784 48.825L59.5255 39.1593Z" fill="#C2A95B" stroke="#313132" stroke-width="0.5"/>
<path d="M59.5255 47.4731L59.5259 47.4729C59.8732 47.2715 60.3211 47.3904 60.5245 47.7409C60.7265 48.0907 60.6067 48.5376 60.2566 48.7398C60.2566 48.7398 60.2566 48.7398 60.2566 48.7398L43.5151 58.4055L43.5151 58.4055C43.4001 58.4719 43.2748 58.5033 43.1505 58.5033C42.8968 58.5033 42.6517 58.3723 42.5162 58.1377L42.5162 58.1377C42.3142 57.7879 42.4339 57.341 42.784 57.1388C42.784 57.1388 42.784 57.1388 42.784 57.1388L59.5255 47.4731Z" fill="#C2A95B" stroke="#313132" stroke-width="0.5"/>
<path d="M59.5255 55.7868L59.5263 55.7864C59.8733 55.5844 60.321 55.7032 60.5245 56.0547C60.7265 56.4044 60.6067 56.8514 60.2566 57.0536C60.2566 57.0536 60.2566 57.0536 60.2566 57.0536L43.5151 66.7192L43.5151 66.7193C43.4001 66.7857 43.2748 66.817 43.1505 66.817C42.8968 66.817 42.6517 66.686 42.5162 66.4514L42.5162 66.4514C42.3142 66.1016 42.4339 65.6547 42.784 65.4525C42.784 65.4525 42.784 65.4525 42.784 65.4525L59.5255 55.7868Z" fill="#C2A95B" stroke="#313132" stroke-width="0.5"/>
<mask id="path-6-inside-1_104_21714" fill="white">
<path d="M79.7062 57.7918L79.7044 57.7906C79.6974 57.7865 79.6916 57.781 79.6846 57.7769C79.6785 57.7733 79.6716 57.7714 79.6655 57.7679L74.8154 54.9456C74.5336 54.7833 74.2401 54.6482 73.9395 54.5316L73.8237 12.6046C73.8237 11.51 73.3923 10.6321 72.6481 10.1698C72.6278 10.156 72.616 10.1346 72.5944 10.1221L64.1734 5.21257C63.3867 4.75745 62.3759 4.8159 61.3919 5.37353L57.6159 7.55234C57.1464 7.82349 56.9854 8.42328 57.2566 8.89277C57.5277 9.3613 58.1285 9.52035 58.597 9.25207L62.3653 7.07806C62.7793 6.84332 63.0734 6.84427 63.1893 6.91039L69.4029 10.5331L32.0729 32.0902C30.3751 33.0589 29.0452 35.3527 29.0452 37.3159C29.1333 66.8349 29.1323 66.4906 29.2199 95.8131L23.0089 92.1788C22.8566 92.0907 22.7598 91.7936 22.7512 91.4027L22.5912 32.4054C22.5912 31.157 23.5407 29.5013 24.6148 28.868L49.9948 14.2181C50.4643 13.9469 50.6253 13.3471 50.3541 12.8777C50.082 12.4082 49.4822 12.2472 49.0137 12.5184L23.626 27.1731C21.9454 28.1647 20.6289 30.4623 20.6289 32.4083L20.7889 91.4276C20.8234 92.9587 21.5813 93.6199 22.024 93.8757L30.4402 98.8005C30.4656 98.8154 30.495 98.8101 30.5211 98.8224C31.39 99.2834 32.37 99.1099 33.2246 98.6175L59.1462 83.6537L61.0308 84.7482L61.0498 95.1002C61.0508 95.4489 61.2367 95.7718 61.5385 95.9472L66.4441 98.7928C66.479 98.8131 66.5203 98.8076 66.557 98.8231C66.5849 98.8354 66.5988 98.8655 66.6281 98.8752C66.8818 98.959 67.141 98.9399 67.3989 98.8007C67.4081 98.7958 67.419 98.7981 67.4281 98.7928C67.4681 98.7697 67.4869 98.726 67.5228 98.698C67.591 98.6452 67.6677 98.6044 67.7213 98.5332L71.9716 92.8716L76.0111 93.5729C76.626 93.6733 77.1619 93.2039 77.1599 92.6033L77.1218 80.9508C80.993 76.4898 83.3865 70.6558 83.3725 65.6212C83.362 61.9375 82.0595 59.1589 79.7062 57.7918ZM81.4102 65.6269C81.4279 71.7006 77.2995 79.6785 71.4085 83.354C65.6428 86.9167 61.5868 84.2104 61.5691 78.2073C61.561 75.2805 62.511 72.0781 64.0326 69.1156C65.9372 65.4111 68.7565 62.0907 71.9467 60.2489C77.2966 57.1596 81.3923 59.472 81.4102 65.6269ZM32.2434 96.9178C31.8305 97.1554 31.5488 97.163 31.4329 97.0941C31.379 97.063 31.3223 96.9845 31.2757 96.8701C31.2463 96.7948 31.2384 96.6788 31.2228 96.5723C31.2101 96.4891 31.1864 96.4311 31.1857 96.3249L31.0074 37.3291C31.0074 37.1395 31.0655 36.9353 31.104 36.7354C31.3541 35.4479 32.2022 34.2852 33.0483 33.8034L70.8017 12.0029C70.8953 11.949 70.9722 11.9214 71.0517 11.8896C71.0965 11.8717 71.1454 11.8455 71.1869 11.8334C71.2521 11.8141 71.304 11.8096 71.3569 11.8038C71.4394 11.7963 71.5185 11.7935 71.5757 11.8177C71.5861 11.8218 71.6047 11.8208 71.6133 11.8256C71.7273 11.8917 71.8614 12.1361 71.8614 12.6075L71.9764 54.1039C70.6798 54.0137 69.3374 54.2829 68.1095 54.7412L68.0155 24.5133C68.0145 24.1626 67.8258 23.8387 67.5211 23.6644C67.2183 23.4909 66.8437 23.4938 66.539 23.6692C65.9727 24.0007 65.4505 24.0888 65.1324 23.9068C64.8201 23.7266 64.64 23.2553 64.64 22.6123C64.64 22.2617 64.4531 21.9378 64.1494 21.7625C63.8466 21.5881 63.471 21.5881 63.1683 21.7625L38.7578 35.8519C38.4541 36.0272 38.2672 36.3511 38.2672 36.7017C38.2672 38.481 36.9527 40.7527 35.3976 41.663C35.0958 41.8393 34.9109 42.1631 34.9119 42.5128L35.0297 84.3872C35.0307 84.737 35.2175 85.0599 35.5203 85.2342C35.823 85.4067 36.1948 85.4096 36.4995 85.2352C37.0686 84.9085 37.5803 84.8222 37.8974 85.0062C38.2136 85.1873 38.3995 85.6654 38.4052 86.3169C38.4081 86.6657 38.5968 86.9857 38.8996 87.1591C39.1931 87.3274 39.5648 87.3364 39.876 87.1572L55.0702 78.3971C55.0834 78.4508 55.0975 78.5032 55.1114 78.5563C55.4912 80.019 56.2103 81.42 57.3275 82.4384L32.2434 96.9178ZM54.7395 76.2325C54.7416 76.2648 54.74 76.289 54.7424 76.3216L40.0906 84.7686C39.5855 83.4818 38.4317 82.7676 36.9881 82.9951L36.876 43.0379C38.6304 41.7674 39.9842 39.4238 40.1998 37.2852L62.9479 24.1559C63.196 24.7911 63.608 25.2942 64.1571 25.6084C64.7137 25.9294 65.3672 26.03 66.058 25.915L66.15 55.6652C66.1241 55.6796 66.0992 55.6949 66.0743 55.7102C60.966 58.6548 56.6429 65.0335 55.2133 71.1948C54.8315 72.8383 54.6338 74.5622 54.7395 76.2325ZM59.3645 81.5119C58.4338 80.9698 57.4506 79.746 57.001 77.9263C56.5219 75.9857 56.4885 73.5374 57.4802 70.2524C59.1845 64.6119 63.7713 58.2815 69.1269 56.4698C71.1229 55.8049 72.7309 56.0089 73.8323 56.6434L74.6151 57.0986C74.5962 57.1025 74.5762 57.1121 74.5573 57.1162C73.3985 57.364 71.9436 57.9816 70.9608 58.5473C67.537 60.5258 64.4737 64.0512 62.3917 68.0142C60.6527 71.3219 59.5949 74.9337 59.604 78.2168C59.6092 79.9305 59.8904 80.8075 59.9341 81.0037C60.0062 81.3284 60.059 81.6699 60.1568 81.9718L59.3645 81.5119ZM63.0111 94.533L62.9948 85.889C63.1924 85.9784 64.2494 86.7204 65.9191 86.8832L65.9497 96.2375L63.0111 94.533ZM71.7158 90.8355C71.3575 90.7761 70.9838 90.9189 70.7634 91.213L67.9082 95.0159L67.8813 86.8247C69.0328 86.6527 70.5808 86.1384 72.1325 85.2183C73.1799 84.6012 74.3901 83.6773 75.1661 82.9759L75.1938 91.4391L71.7158 90.8355Z"/>
</mask>
<path d="M79.7062 57.7918L79.7044 57.7906C79.6974 57.7865 79.6916 57.781 79.6846 57.7769C79.6785 57.7733 79.6716 57.7714 79.6655 57.7679L74.8154 54.9456C74.5336 54.7833 74.2401 54.6482 73.9395 54.5316L73.8237 12.6046C73.8237 11.51 73.3923 10.6321 72.6481 10.1698C72.6278 10.156 72.616 10.1346 72.5944 10.1221L64.1734 5.21257C63.3867 4.75745 62.3759 4.8159 61.3919 5.37353L57.6159 7.55234C57.1464 7.82349 56.9854 8.42328 57.2566 8.89277C57.5277 9.3613 58.1285 9.52035 58.597 9.25207L62.3653 7.07806C62.7793 6.84332 63.0734 6.84427 63.1893 6.91039L69.4029 10.5331L32.0729 32.0902C30.3751 33.0589 29.0452 35.3527 29.0452 37.3159C29.1333 66.8349 29.1323 66.4906 29.2199 95.8131L23.0089 92.1788C22.8566 92.0907 22.7598 91.7936 22.7512 91.4027L22.5912 32.4054C22.5912 31.157 23.5407 29.5013 24.6148 28.868L49.9948 14.2181C50.4643 13.9469 50.6253 13.3471 50.3541 12.8777C50.082 12.4082 49.4822 12.2472 49.0137 12.5184L23.626 27.1731C21.9454 28.1647 20.6289 30.4623 20.6289 32.4083L20.7889 91.4276C20.8234 92.9587 21.5813 93.6199 22.024 93.8757L30.4402 98.8005C30.4656 98.8154 30.495 98.8101 30.5211 98.8224C31.39 99.2834 32.37 99.1099 33.2246 98.6175L59.1462 83.6537L61.0308 84.7482L61.0498 95.1002C61.0508 95.4489 61.2367 95.7718 61.5385 95.9472L66.4441 98.7928C66.479 98.8131 66.5203 98.8076 66.557 98.8231C66.5849 98.8354 66.5988 98.8655 66.6281 98.8752C66.8818 98.959 67.141 98.9399 67.3989 98.8007C67.4081 98.7958 67.419 98.7981 67.4281 98.7928C67.4681 98.7697 67.4869 98.726 67.5228 98.698C67.591 98.6452 67.6677 98.6044 67.7213 98.5332L71.9716 92.8716L76.0111 93.5729C76.626 93.6733 77.1619 93.2039 77.1599 92.6033L77.1218 80.9508C80.993 76.4898 83.3865 70.6558 83.3725 65.6212C83.362 61.9375 82.0595 59.1589 79.7062 57.7918ZM81.4102 65.6269C81.4279 71.7006 77.2995 79.6785 71.4085 83.354C65.6428 86.9167 61.5868 84.2104 61.5691 78.2073C61.561 75.2805 62.511 72.0781 64.0326 69.1156C65.9372 65.4111 68.7565 62.0907 71.9467 60.2489C77.2966 57.1596 81.3923 59.472 81.4102 65.6269ZM32.2434 96.9178C31.8305 97.1554 31.5488 97.163 31.4329 97.0941C31.379 97.063 31.3223 96.9845 31.2757 96.8701C31.2463 96.7948 31.2384 96.6788 31.2228 96.5723C31.2101 96.4891 31.1864 96.4311 31.1857 96.3249L31.0074 37.3291C31.0074 37.1395 31.0655 36.9353 31.104 36.7354C31.3541 35.4479 32.2022 34.2852 33.0483 33.8034L70.8017 12.0029C70.8953 11.949 70.9722 11.9214 71.0517 11.8896C71.0965 11.8717 71.1454 11.8455 71.1869 11.8334C71.2521 11.8141 71.304 11.8096 71.3569 11.8038C71.4394 11.7963 71.5185 11.7935 71.5757 11.8177C71.5861 11.8218 71.6047 11.8208 71.6133 11.8256C71.7273 11.8917 71.8614 12.1361 71.8614 12.6075L71.9764 54.1039C70.6798 54.0137 69.3374 54.2829 68.1095 54.7412L68.0155 24.5133C68.0145 24.1626 67.8258 23.8387 67.5211 23.6644C67.2183 23.4909 66.8437 23.4938 66.539 23.6692C65.9727 24.0007 65.4505 24.0888 65.1324 23.9068C64.8201 23.7266 64.64 23.2553 64.64 22.6123C64.64 22.2617 64.4531 21.9378 64.1494 21.7625C63.8466 21.5881 63.471 21.5881 63.1683 21.7625L38.7578 35.8519C38.4541 36.0272 38.2672 36.3511 38.2672 36.7017C38.2672 38.481 36.9527 40.7527 35.3976 41.663C35.0958 41.8393 34.9109 42.1631 34.9119 42.5128L35.0297 84.3872C35.0307 84.737 35.2175 85.0599 35.5203 85.2342C35.823 85.4067 36.1948 85.4096 36.4995 85.2352C37.0686 84.9085 37.5803 84.8222 37.8974 85.0062C38.2136 85.1873 38.3995 85.6654 38.4052 86.3169C38.4081 86.6657 38.5968 86.9857 38.8996 87.1591C39.1931 87.3274 39.5648 87.3364 39.876 87.1572L55.0702 78.3971C55.0834 78.4508 55.0975 78.5032 55.1114 78.5563C55.4912 80.019 56.2103 81.42 57.3275 82.4384L32.2434 96.9178ZM54.7395 76.2325C54.7416 76.2648 54.74 76.289 54.7424 76.3216L40.0906 84.7686C39.5855 83.4818 38.4317 82.7676 36.9881 82.9951L36.876 43.0379C38.6304 41.7674 39.9842 39.4238 40.1998 37.2852L62.9479 24.1559C63.196 24.7911 63.608 25.2942 64.1571 25.6084C64.7137 25.9294 65.3672 26.03 66.058 25.915L66.15 55.6652C66.1241 55.6796 66.0992 55.6949 66.0743 55.7102C60.966 58.6548 56.6429 65.0335 55.2133 71.1948C54.8315 72.8383 54.6338 74.5622 54.7395 76.2325ZM59.3645 81.5119C58.4338 80.9698 57.4506 79.746 57.001 77.9263C56.5219 75.9857 56.4885 73.5374 57.4802 70.2524C59.1845 64.6119 63.7713 58.2815 69.1269 56.4698C71.1229 55.8049 72.7309 56.0089 73.8323 56.6434L74.6151 57.0986C74.5962 57.1025 74.5762 57.1121 74.5573 57.1162C73.3985 57.364 71.9436 57.9816 70.9608 58.5473C67.537 60.5258 64.4737 64.0512 62.3917 68.0142C60.6527 71.3219 59.5949 74.9337 59.604 78.2168C59.6092 79.9305 59.8904 80.8075 59.9341 81.0037C60.0062 81.3284 60.059 81.6699 60.1568 81.9718L59.3645 81.5119ZM63.0111 94.533L62.9948 85.889C63.1924 85.9784 64.2494 86.7204 65.9191 86.8832L65.9497 96.2375L63.0111 94.533ZM71.7158 90.8355C71.3575 90.7761 70.9838 90.9189 70.7634 91.213L67.9082 95.0159L67.8813 86.8247C69.0328 86.6527 70.5808 86.1384 72.1325 85.2183C73.1799 84.6012 74.3901 83.6773 75.1661 82.9759L75.1938 91.4391L71.7158 90.8355Z" fill="#C2A95B" stroke="#313132" mask="url(#path-6-inside-1_104_21714)"/>
<path d="M70.0507 75.3125L69.8201 75.0983L68.0257 73.4313C67.7318 73.1588 67.2687 73.1735 66.9921 73.4692C66.7176 73.7646 66.7346 74.2271 67.0302 74.502C67.0302 74.502 67.0302 74.5021 67.0303 74.5021L69.73 77.0102L70.0507 75.3125ZM70.0507 75.3125L70.2072 75.0394M70.0507 75.3125L70.2072 75.0394M70.2072 75.0394L74.811 67.0026M70.2072 75.0394L74.811 67.0026M74.811 67.0026C75.0117 66.6524 75.4565 66.5323 75.8098 66.7314M74.811 67.0026L75.8098 66.7314M75.8098 66.7314C76.1603 66.9332 76.2811 67.3792 76.0807 67.7295L70.863 76.8379C70.8629 76.838 70.8629 76.8381 70.8629 76.8381C70.6293 77.2437 70.0782 77.3326 69.7302 77.0104L75.8098 66.7314Z" fill="#C2A95B" stroke="#313132" stroke-width="0.5"/>
</svg>
