<svg width="104" height="104" viewBox="0 0 104 104" fill="none" xmlns="http://www.w3.org/2000/svg">
<path d="M13.4578 67.4155C13.477 77.1456 16.7426 84.4474 22.7134 87.9101L28.3163 91.1724L28.5845 90.8905C25.9148 86.7863 24.4757 81.2755 24.4509 74.7076C24.4214 64.1362 28.1383 52.3763 34.1734 41.9251C40.2085 31.4738 48.5507 22.3501 57.7515 17.0398L57.7516 17.0398C62.6274 14.2238 68.4133 12.1505 74.0069 12.4175C74.04 12.4191 74.0728 12.4188 74.0992 12.4185L74.1037 12.4185C74.1331 12.4182 74.1552 12.4181 74.1756 12.4193L74.2876 12.0467L68.6806 8.78712L68.6805 8.78706C62.6456 5.28354 54.5697 6.13146 45.9779 11.086C45.601 11.3001 45.1256 11.1733 44.9091 10.7994C44.6941 10.4265 44.8223 9.94817 45.1959 9.73316L45.196 9.7331C54.3596 4.45163 62.9674 3.66356 69.4646 7.43707L69.4649 7.43726C71.3462 8.52518 72.0988 8.9625 72.4128 9.14676C72.5707 9.2394 72.6154 9.26667 72.6362 9.2799C72.6412 9.28307 72.6453 9.28577 72.6496 9.28856C72.6634 9.29762 72.6789 9.30769 72.7301 9.33817C72.9864 9.49064 74.2476 10.2199 82.0264 14.7011L82.0265 14.7011C88.4763 18.4121 92.0768 26.1612 92.1055 36.5817C92.135 47.1561 88.419 58.9191 82.3854 69.3731C76.3517 79.827 68.0113 88.9528 58.8125 94.2641C53.4573 97.3558 48.2832 98.9092 43.611 98.9092C40.3302 98.9092 37.2969 98.1422 34.6153 96.604L34.603 96.5969L34.5899 96.5917C34.5422 96.5727 34.413 96.5063 34.1962 96.3871C33.9847 96.2708 33.7012 96.1107 33.3532 95.9115C32.6573 95.5133 31.7065 94.9607 30.5641 94.2942C29.9772 93.9519 29.3399 93.5795 28.6607 93.1828C26.6961 92.035 24.3816 90.6829 21.9271 89.2609C15.4997 85.5327 11.9165 77.7976 11.8955 67.4194L11.8955 67.4192C11.8516 51.633 20.0498 32.8711 32.7919 19.6385C33.095 19.3265 33.5893 19.3201 33.8965 19.6166L33.8967 19.6167C34.2081 19.9168 34.2171 20.411 33.9182 20.7213L33.9182 20.7214C21.4501 33.6687 13.4155 51.9903 13.4578 67.4155ZM13.4578 67.4155C13.4578 67.4154 13.4578 67.4154 13.4578 67.4154L13.6578 67.415L13.4578 67.4155C13.4578 67.4155 13.4578 67.4155 13.4578 67.4155ZM35.3748 95.2402L35.4745 95.0668L35.3748 95.2402C41.4096 98.7125 49.4699 97.8561 58.0313 92.9108C67.0342 87.7128 75.1748 78.7983 81.0567 68.6086C86.9387 58.4189 90.573 46.9349 90.5432 36.5864C90.5151 26.4098 86.9571 19.2969 81.1519 16.0148C75.3478 12.7333 67.3707 13.323 58.5959 18.3883L58.6959 18.5615L58.5959 18.3883C49.5902 23.5877 41.4473 32.5024 35.5634 42.691C29.6795 52.8795 26.0437 64.3608 26.0726 74.705C26.0995 84.4744 29.3824 91.7919 35.3748 95.2402Z" fill="#C2A95B" stroke="#313132" stroke-width="0.4"/>
<path d="M37.6233 17.1654L37.6235 17.1652C38.9868 15.9595 40.3907 14.8336 41.791 13.816M37.6233 17.1654L41.791 13.816M37.6233 17.1654C37.3056 17.4471 36.8085 17.4229 36.5205 17.0965C36.2352 16.7731 36.2656 16.2795 36.5891 15.9933C37.9911 14.7565 39.4329 13.5982 40.8725 12.551M37.6233 17.1654L40.8725 12.551M41.791 13.816C42.1401 13.5621 42.2168 13.074 41.9631 12.7241C41.7102 12.3752 41.2204 12.2986 40.8725 12.551M41.791 13.816L40.8725 12.551" fill="#C2A95B" stroke="#313132" stroke-width="0.4"/>
<path d="M61.4849 23.4846L61.4849 23.4846C53.4307 28.1355 46.0248 36.3219 40.6396 45.643C35.2543 54.9641 31.877 65.442 31.903 74.6887C31.9175 79.8963 32.9993 84.0804 34.9969 86.9687C37.0004 89.8654 39.9172 91.4457 43.5547 91.4457C46.9585 91.4457 50.9274 90.1822 55.0316 87.8115C63.0819 83.164 70.4845 74.9788 75.8674 65.6569C81.2502 56.3351 84.6261 45.8546 84.6001 36.6036C84.579 29 82.343 23.6668 78.2918 21.2679C74.2384 18.8678 68.4601 19.4591 61.4849 23.4846ZM30.3408 74.6934C30.315 65.2282 33.7745 54.4703 39.3137 44.8808C44.8529 35.2913 52.459 26.8921 60.7037 22.1313C68.0459 17.8938 74.3925 17.2538 78.8947 19.76C83.3947 22.265 86.138 27.9618 86.1623 36.599C86.1881 46.069 82.73 56.8297 77.1932 66.4199C71.6564 76.0101 64.0536 84.4079 55.8127 89.1649C51.448 91.6849 47.2093 93.008 43.5547 93.008C39.434 93.008 36.1496 91.3071 33.8845 88.1808C31.6138 85.0468 30.357 80.4644 30.3408 74.6934Z" fill="#C2A95B" stroke="#313132" stroke-width="0.4"/>
<path d="M59.8819 81.1432L59.8685 78.0925C59.8666 77.5511 59.4278 77.1152 58.8874 77.1152H58.8836M59.8819 81.1432L59.6819 81.1439L59.6685 78.0934L59.6685 78.0932C59.667 77.6622 59.3178 77.3152 58.8874 77.3152H58.8841M59.8819 81.1432L59.6819 81.1441L59.6819 81.1439C59.6834 81.5747 59.3359 81.9256 58.904 81.9281M59.8819 81.1432C59.8839 81.6845 59.4469 82.1253 58.9046 82.1281M58.8841 77.3152C58.8843 77.3152 58.8844 77.3152 58.8846 77.3152L58.8836 77.1152M58.8841 77.3152H58.8836V77.1152M58.8841 77.3152C58.4522 77.3177 58.1048 77.6687 58.1063 78.0993L58.1063 78.0993L57.9063 78.1001C57.9043 77.5588 58.3413 77.118 58.8836 77.1152M58.904 81.9281H58.9008C58.4704 81.9281 58.1212 81.5811 58.1197 81.1501L58.1197 81.15L58.1063 78.0994L57.9197 81.1508C57.9216 81.6922 58.3604 82.1281 58.9008 82.1281H58.9046M58.904 81.9281C58.9039 81.9281 58.9037 81.9281 58.9036 81.9281L58.9046 82.1281M58.904 81.9281H58.9046V82.1281" fill="#C2A95B" stroke="#313132" stroke-width="0.4"/>
<path d="M58.6413 35.047L58.6414 35.0465H58.6274C58.1971 35.0465 57.8478 34.6986 57.8462 34.2685L57.8462 34.2684L57.8328 30.8939C57.8328 30.8939 57.8328 30.8939 57.8328 30.8938C57.8312 30.4293 58.1645 30.0564 58.5898 30.1082L58.6018 30.1097H58.614C59.0443 30.1097 59.3936 30.4576 59.3951 30.8877L59.3951 30.8878L59.4085 34.2622C59.4085 34.2623 59.4085 34.2623 59.4085 34.2623C59.4092 34.4735 59.3135 34.6787 59.1624 34.8287C59.0105 34.9796 58.8187 35.0594 58.6413 35.047Z" fill="#C2A95B" stroke="#313132" stroke-width="0.4"/>
<path d="M44.6518 79.6968L44.6518 79.6967C44.8663 79.3248 45.3473 79.198 45.7182 79.4108C46.092 79.6268 46.2198 80.1041 46.0033 80.4776L46.0032 80.4779L43.489 84.8326L43.4887 84.8332C43.2769 85.2027 42.8004 85.3353 42.4226 85.1187C42.0488 84.9026 41.9209 84.4253 42.1374 84.0518L42.1376 84.0515L44.6518 79.6968Z" fill="#C2A95B" stroke="#313132" stroke-width="0.4"/>
<path d="M74.7117 30.7515L74.7114 30.752C74.4995 31.1216 74.023 31.2542 73.6452 31.0375C73.2714 30.8214 73.1436 30.3442 73.3601 29.9706L73.3603 29.9703L75.8744 25.6156L75.8746 25.6154C76.089 25.2427 76.568 25.1159 76.9409 25.3296C77.3147 25.5457 77.4425 26.0229 77.226 26.3965L77.2258 26.3967L74.7117 30.7515Z" fill="#C2A95B" stroke="#313132" stroke-width="0.4"/>
<path d="M42.9272 65.7734L42.9277 65.7744C43.1443 66.148 43.0163 66.6253 42.6424 66.8413L38.4309 69.2728C38.4308 69.2729 38.4307 69.2729 38.4306 69.273C38.0536 69.4892 37.5764 69.3583 37.3646 68.9877L37.3646 68.9877L37.364 68.9867C37.1475 68.6131 37.2754 68.1357 37.6493 67.9197L41.8613 65.488L41.8616 65.4878C42.234 65.2718 42.7125 65.3981 42.9272 65.7734Z" fill="#C2A95B" stroke="#313132" stroke-width="0.4"/>
<path d="M79.1347 43.996L79.1347 43.996C79.5103 43.7792 79.9858 43.9081 80.2009 44.2819L80.2012 44.2824C80.4177 44.656 80.2898 45.1334 79.9158 45.3494L75.7043 47.7799C75.7043 47.7799 75.7042 47.7799 75.7042 47.78C75.3276 47.996 74.8509 47.8661 74.6379 47.4946L74.6379 47.4946L74.6374 47.4937C74.4209 47.1202 74.5488 46.6428 74.9227 46.4268C74.9227 46.4268 74.9228 46.4268 74.9228 46.4268L79.1347 43.996Z" fill="#C2A95B" stroke="#313132" stroke-width="0.4"/>
<path d="M70.3933 59.3848L70.3936 59.3842C70.6036 59.0061 71.0808 58.8739 71.457 59.0833C71.457 59.0834 71.4571 59.0834 71.4571 59.0834L74.1224 60.5722C74.4992 60.7827 74.6334 61.2587 74.423 61.6346L74.4229 61.6346C74.2111 62.0133 73.7354 62.1456 73.3592 61.9361C73.3592 61.9361 73.3592 61.936 73.3591 61.936L70.6938 60.4472C70.6938 60.4472 70.6938 60.4472 70.6938 60.4472C70.317 60.2367 70.1828 59.7608 70.3933 59.3848Z" fill="#C2A95B" stroke="#313132" stroke-width="0.4"/>
<path d="M49.5143 47.7129L49.5143 47.7129C49.3025 48.0915 48.8268 48.2238 48.4506 48.0143C48.4506 48.0143 48.4506 48.0143 48.4505 48.0143L45.8657 46.5705C45.8657 46.5705 45.8657 46.5705 45.8657 46.5705C45.4889 46.36 45.3547 45.8841 45.5652 45.5081L45.5655 45.5075C45.7754 45.1295 46.2507 44.9971 46.629 45.2067C46.6291 45.2068 46.6292 45.2068 46.6293 45.2069L49.2138 46.6505C49.2138 46.6505 49.2138 46.6505 49.2138 46.6505C49.5906 46.861 49.7248 47.3369 49.5143 47.7129Z" fill="#C2A95B" stroke="#313132" stroke-width="0.4"/>
<path d="M62.1571 50.2584V50.0195V41.5328C62.1571 41.101 61.8078 40.7517 61.3759 40.7517C60.9441 40.7517 60.5948 41.101 60.5948 41.5328V50.8874V50.9908L60.5103 51.0506C59.4446 51.8047 58.4889 52.9439 57.8005 54.2169C57.1117 55.4903 56.6983 56.883 56.7009 58.1388L62.1571 50.2584ZM62.1571 50.2584L62.3922 50.2164M62.1571 50.2584L62.3922 50.2164M62.3922 50.2164C62.4444 50.2071 62.507 50.1941 62.5655 50.1819C62.6068 50.1733 62.646 50.1652 62.678 50.1591C62.7683 50.1418 62.8466 50.1309 62.9166 50.1309C63.467 50.1309 64.0599 50.3273 64.516 50.7969C64.9707 51.265 65.3085 52.0245 65.3113 53.1862V53.1864C65.3159 54.5362 64.8408 56.05 64.0601 57.4025C63.2795 58.7549 62.2042 59.927 61.0288 60.6047L61.0286 60.6048C60.3532 60.9954 59.6843 61.195 59.0975 61.195C58.7982 61.195 58.4837 61.1289 58.182 60.9959L58.0424 60.9344L57.9461 61.0529L49.6062 71.3217L49.6061 71.3218C49.3353 71.6556 48.8439 71.7075 48.5079 71.4354M62.3922 50.2164L65.5113 53.1857C65.5208 55.9729 63.5547 59.3791 61.1287 60.778C60.4312 61.1813 59.7279 61.395 59.0975 61.395C58.7691 61.395 58.4273 61.3225 58.1014 61.1789L49.7614 71.4478C49.4208 71.8676 48.8033 71.9323 48.3817 71.5905M48.3817 71.5905L48.508 71.4355C48.508 71.4355 48.508 71.4354 48.5079 71.4354M48.3817 71.5905C47.962 71.2485 47.8969 70.6305 48.2399 70.2099L48.3817 71.5905ZM48.5079 71.4354C48.1735 71.1627 48.1221 70.6707 48.3949 70.3363L48.3951 70.3359L56.9206 59.8386L56.9933 59.7491L56.9523 59.6414C56.7989 59.2379 56.7024 58.7454 56.7009 58.1388L48.5079 71.4354ZM60.2476 59.2524L60.2476 59.2524C61.1961 58.7047 62.0702 57.7241 62.7056 56.6241C63.3409 55.5243 63.752 54.2801 63.749 53.1909L63.749 53.1905C63.748 52.9899 63.7318 52.6408 63.6355 52.3356C63.5428 52.0414 63.3403 51.6932 62.9166 51.6932C62.7145 51.6932 62.3259 51.7506 61.7665 52.0735C60.818 52.6207 59.9434 53.6013 59.3076 54.7014C58.6718 55.8013 58.2602 57.0458 58.2632 58.135L58.2632 58.1354C58.2642 58.3355 58.2804 58.6847 58.3769 58.9901C58.4701 59.2847 58.6731 59.6327 59.0975 59.6327C59.2996 59.6327 59.6882 59.5753 60.2476 59.2524Z" fill="#C2A95B" stroke="#313132" stroke-width="0.4"/>
</svg>
