<svg width="104" height="104" viewBox="0 0 104 104" fill="none" xmlns="http://www.w3.org/2000/svg">
<path d="M41.0971 101.244C40.9926 101.244 40.8865 101.217 40.791 101.162L32.8377 96.5588C32.3613 96.2817 31.7848 95.6686 31.737 94.3222L31.6914 76.0409C31.6907 75.8221 31.8072 75.6197 31.9968 75.5099C32.1865 75.3994 32.4195 75.4009 32.6092 75.5099L36.2035 77.5905L36.0758 78.226L36.3416 77.6749C37.6791 78.4605 39.0704 78.9862 40.5572 79.2782C40.8432 79.3342 41.0501 79.5844 41.0508 79.8764L41.1278 99.0396C41.1278 99.2009 41.139 99.348 41.1636 99.4824L40.7036 99.6975L40.7581 99.7296L41.2032 99.6751C41.2629 99.755 41.257 99.7632 41.2734 99.8618C41.3331 99.9686 41.3764 100.034 41.4287 100.099L41.5295 100.2C41.7468 100.417 41.7692 100.762 41.5826 101.005C41.4631 101.16 41.2816 101.244 41.0971 101.244ZM32.9176 77.1021L32.9602 94.299C32.9819 94.8949 33.1559 95.3288 33.4516 95.5006L39.909 99.2375C39.906 99.1755 39.9045 99.1098 39.9045 99.0418L39.8291 80.3737C38.3893 80.0407 37.0354 79.5015 35.7995 78.7682C35.7942 78.7585 35.7136 78.7263 35.6307 78.6741L32.9176 77.1021Z" fill="#C2A95B"/>
<path d="M42.0087 101.56C41.6301 101.56 41.2746 101.467 40.964 101.278L40.967 101.274C40.9446 101.261 40.9237 101.247 40.9035 101.231C40.837 101.193 40.7586 101.144 40.7265 101.111L40.5428 100.942C40.383 100.754 40.2881 100.611 40.2135 100.462C40.1761 100.424 40.1268 100.317 40.0925 100.183C40.0327 100.062 40.0096 99.9477 39.9939 99.8715C39.9782 99.8304 39.9633 99.7617 39.9558 99.6885C39.911 99.4981 39.8894 99.2815 39.8894 99.0269L39.8281 79.8809C39.8274 79.6972 39.9088 79.5232 40.0507 79.4067C40.1926 79.2894 40.3778 79.2439 40.5585 79.2782C45.0631 80.1676 50.3585 78.9534 55.8713 75.7698C61.4206 72.5721 66.7765 67.5948 71.3618 61.3763C71.5179 61.1635 71.7919 61.0769 72.0444 61.1575C72.2945 61.2397 72.4648 61.4734 72.4655 61.737L72.5268 80.8853C72.544 83.0607 71.0086 85.2517 69.5135 86.1135C68.7622 86.5295 68.067 86.6519 67.4412 86.4787L57.6553 83.8493C57.3589 83.7723 56.9466 83.8649 56.5098 84.1121C55.987 84.4146 55.4941 84.8851 55.0901 85.4713L45.3461 99.3928C44.8062 100.146 44.202 100.718 43.5464 101.1C43.0229 101.405 42.4964 101.56 42.0087 101.56ZM41.5644 100.213C41.5763 100.219 41.5876 100.225 41.5988 100.232C41.9094 100.419 42.406 100.349 42.9303 100.043C43.4358 99.7483 43.913 99.2912 44.3477 98.6849L54.0857 84.773C54.589 84.0427 55.2186 83.4453 55.9019 83.0502C56.63 82.638 57.3461 82.5051 57.9675 82.6664L67.7616 85.298C68.0707 85.3824 68.4583 85.2995 68.9109 85.0486C70.0736 84.3787 71.3177 82.5454 71.3035 80.8928C71.3035 80.8913 71.3035 80.8905 71.3035 80.8898L71.2483 63.5502C66.8139 69.231 61.7373 73.8013 56.4829 76.8295C51.0015 79.9944 45.6874 81.2915 41.0536 80.6052L41.1126 99.0246C41.1126 99.2405 41.1343 99.3652 41.1529 99.4324C41.1671 99.4847 41.1738 99.5384 41.1738 99.5922C41.2343 99.6714 41.2575 99.7632 41.2739 99.8618C41.3404 99.979 41.3852 100.046 41.4464 100.119L41.5129 100.178C41.53 100.189 41.5472 100.2 41.5644 100.213Z" fill="#C2A95B"/>
<path d="M36.1507 78.8847C36.0469 78.8847 35.9408 78.8585 35.8437 78.8018L27.6904 74.0649C22.2373 70.8918 19.2159 64.2985 19.1837 55.4977C19.133 37.486 31.8499 15.4574 47.5309 6.39218C55.3064 1.91373 62.6323 1.21623 68.1652 4.42814L76.3 9.16424C76.3007 9.16424 76.3014 9.16499 76.3022 9.16574C76.5942 9.336 76.6943 9.71014 76.524 10.0021C76.3552 10.2934 75.9803 10.3942 75.6883 10.2232L75.6861 10.2224C70.5482 7.24053 63.6614 7.93877 56.2966 12.188C40.9532 21.0485 28.5111 42.6007 28.5604 60.2315C28.576 68.5708 31.381 74.79 36.4591 77.7443C36.7511 77.9138 36.8504 78.2887 36.6801 78.5807C36.5666 78.7756 36.3612 78.8847 36.1507 78.8847ZM60.4719 3.66493C56.7081 3.66493 52.5104 4.93595 48.1425 7.45187C32.7998 16.3214 20.3577 37.8728 20.407 55.4939C20.4383 63.8415 23.2433 70.0622 28.3057 73.0075L31.4213 74.8177C28.7695 71.2481 27.3483 66.2566 27.3371 60.2345C27.2863 42.2139 40.0033 20.1845 55.6843 11.129C61.0335 8.04108 66.1728 6.74915 70.664 7.29803L67.5506 5.48559C65.4544 4.26908 63.0662 3.66493 60.4719 3.66493Z" fill="#C2A95B"/>
<path d="M43.5426 80.78C42.4381 80.78 41.3643 80.6785 40.3262 80.4746C32.2214 78.8802 27.3636 71.3138 27.3322 60.2338C27.2807 42.2117 39.9991 20.1823 55.6823 11.1276C63.4168 6.6618 70.7211 5.95459 76.254 9.13888C81.751 12.3015 84.7927 18.9105 84.8173 27.748C84.8487 38.6405 80.188 51.4837 72.3498 62.1022C67.6645 68.4514 62.1764 73.5459 56.4777 76.8355C51.9611 79.4433 47.5529 80.78 43.5426 80.78ZM68.6032 8.40031C64.8416 8.40031 60.6507 9.67133 56.2947 12.1865C40.949 21.0463 28.5054 42.5985 28.5554 60.2308C28.5853 70.682 33.0742 77.8011 40.5622 79.2738C45.075 80.1587 50.366 78.9511 55.8653 75.7766C61.4199 72.5699 66.7795 67.5903 71.3655 61.3764C79.0529 50.961 83.6247 38.3911 83.5941 27.7509C83.5702 19.3691 80.7466 13.1357 75.6438 10.1993C73.5558 8.99699 71.1796 8.40031 68.6032 8.40031Z" fill="#C2A95B"/>
<path d="M46.3424 19.8029C46.1863 19.8029 46.0302 19.7439 45.9107 19.6252C45.6718 19.3877 45.6703 19.0008 45.907 18.7611C47.2258 17.4266 48.5865 16.1959 49.9516 15.1041C50.2159 14.892 50.599 14.9354 50.8104 15.1982C51.0217 15.4611 50.9814 15.8449 50.7193 16.057C49.3922 17.1339 48.0652 18.334 46.7748 19.6237C46.6553 19.7432 46.4992 19.8029 46.3424 19.8029Z" fill="#C2A95B"/>
<path d="M40.4414 80.4903C40.4026 80.4903 40.3622 80.4865 40.3227 80.4791C38.6977 80.1602 37.1757 79.5844 35.8002 78.7682C35.7949 78.7585 35.7143 78.7264 35.6314 78.6741C35.3483 78.4956 35.2318 78.1035 35.4066 77.8183C35.5836 77.533 35.9256 77.424 36.2116 77.595C36.2161 77.5972 36.2811 77.6376 36.2848 77.6405C36.3147 77.6517 36.3968 77.6995 36.4245 77.7152C37.6798 78.4605 39.0711 78.9862 40.5587 79.2782C40.8902 79.3432 41.106 79.6651 41.0411 79.9966C40.9836 80.2879 40.7282 80.4903 40.4414 80.4903Z" fill="#C2A95B"/>
<path d="M46.3424 19.8029C46.1863 19.8029 46.0302 19.7439 45.9107 19.6252C45.6718 19.3877 45.6703 19.0008 45.907 18.7611C47.2258 17.4266 48.5865 16.1959 49.9516 15.1041C50.2159 14.892 50.599 14.9354 50.8104 15.1982C51.0217 15.4611 50.9814 15.8449 50.7193 16.057C49.3922 17.1339 48.0652 18.334 46.7748 19.6237C46.6553 19.7432 46.4992 19.8029 46.3424 19.8029Z" fill="#C2A95B"/>
<path d="M46.9967 70.8C46.1864 70.8 45.3986 70.7253 44.6361 70.576C38.6812 69.4043 35.1124 63.8631 35.09 55.7523C35.0519 42.647 44.3 26.6278 55.7049 20.0434C61.361 16.7762 66.711 16.2662 70.772 18.6029C74.8069 20.9246 77.0398 25.763 77.0577 32.2257C77.0808 40.1483 73.6927 49.4868 67.9955 57.2056C64.5894 61.8214 60.5971 65.527 56.4502 67.9212C53.1532 69.8247 49.9308 70.8 46.9967 70.8ZM65.1457 18.3833C62.4521 18.3833 59.4455 19.2966 56.3173 21.1023C45.2499 27.4918 36.2766 43.0339 36.3132 55.7493C36.3341 63.2314 39.5333 68.3252 44.8721 69.3751C48.1004 70.0114 51.8903 69.1414 55.8378 66.8622C59.8406 64.5509 63.7037 60.9604 67.0112 56.4797C72.5576 48.9641 75.8561 39.8989 75.8344 32.2287C75.8173 26.2208 73.8024 21.7588 70.1611 19.6633C68.675 18.8082 66.9828 18.3833 65.1457 18.3833Z" fill="#C2A95B"/>
<path d="M45.3738 62.265C45.1318 62.265 44.9018 62.2067 44.6972 62.0888C44.2357 61.8236 43.9706 61.2957 43.9684 60.64L43.9258 45.6132C43.9228 44.4901 44.6853 43.169 45.6613 42.6059L48.8725 40.7517C49.4475 40.4201 50.0419 40.3835 50.5027 40.6494C50.9627 40.9145 51.2278 41.4432 51.2293 42.0996L51.2719 57.1256C51.2756 58.2481 50.5132 59.5699 49.5371 60.1329L46.3252 61.9872C46.0056 62.1716 45.68 62.265 45.3738 62.265ZM49.4848 41.8106L46.2737 43.6649C45.6725 44.0121 45.1475 44.921 45.149 45.6102L45.1916 60.6363C45.1923 60.8603 45.2521 60.997 45.3073 61.0283C45.3619 61.0589 45.5149 61.0425 45.7128 60.9283L48.9248 59.074C49.5259 58.7267 50.0509 57.8179 50.0487 57.1294L50.0061 42.1026C50.0054 41.8435 49.9314 41.7322 49.8918 41.7098C49.8515 41.6859 49.7134 41.6762 49.4848 41.8106Z" fill="#C2A95B"/>
<path d="M50.6598 57.8851C50.5545 57.8851 50.4492 57.8582 50.3551 57.8037C50.1661 57.6954 50.0489 57.4946 50.0482 57.2765L50.0078 43.119C50.0071 43.0137 50.0347 42.9099 50.0862 42.818C51.945 39.509 52.989 36.3987 53.3713 33.0292C53.5386 31.5864 54.5072 30.051 55.6752 29.3759C56.7266 28.7673 57.4585 29.0287 57.802 29.2385C58.3964 29.6037 58.7093 30.34 58.6593 31.2578C58.5757 32.8365 58.722 34.3129 58.8766 35.8752L58.9983 37.1619C58.958 37.2209 59.0103 37.2104 59.0895 37.1634L65.5962 33.4071C66.2302 33.0412 66.8851 32.9881 67.3929 33.2622C67.8634 33.5161 68.1427 34.0038 68.1793 34.6363C68.2256 35.3786 67.9515 36.215 67.4848 36.9058C67.9411 37.2 68.1927 37.7332 68.195 38.412C68.1972 39.1185 67.9269 39.8892 67.4923 40.5336C67.9441 40.8249 68.2032 41.3715 68.2054 42.0429C68.2069 42.7493 67.9381 43.5178 67.5057 44.1593C67.9904 44.4714 68.2488 45.0718 68.2151 45.8082C68.1569 47.0038 67.3153 48.3644 66.2578 48.9745L50.966 57.803C50.8711 57.8582 50.7651 57.8851 50.6598 57.8851ZM51.2318 43.2758L51.2684 56.2161L65.6455 47.9156C66.3385 47.5153 66.9553 46.5243 66.9934 45.7507C67.0083 45.4161 66.9217 45.2376 66.8426 45.1876C66.7544 45.1331 66.5662 45.1659 66.3631 45.272C66.0659 45.428 65.7074 45.3205 65.5446 45.0337C65.3811 44.7462 65.4759 44.3811 65.7582 44.2085C66.4236 43.8038 66.9837 42.8128 66.9822 42.0459C66.9815 41.7554 66.8971 41.6023 66.8254 41.5597C66.7567 41.5164 66.5931 41.5179 66.3549 41.6456C66.0614 41.8009 65.7 41.6964 65.5364 41.4104C65.3714 41.1236 65.4647 40.7577 65.7463 40.5844C66.4124 40.1744 66.974 39.1812 66.9718 38.415C66.971 38.126 66.8874 37.9737 66.8164 37.9311C66.7462 37.8893 66.5834 37.8885 66.3422 38.0155C66.0465 38.1701 65.6873 38.064 65.5245 37.7765C65.3609 37.489 65.4558 37.1238 65.7381 36.9521C66.4363 36.5279 67.0061 35.4801 66.9576 34.7095C66.9523 34.6169 66.9277 34.4018 66.8119 34.3391C66.7208 34.2875 66.508 34.2928 66.2085 34.466L59.7018 38.2223C59.2605 38.477 58.7922 38.5121 58.4174 38.3164C58.0529 38.1267 57.8207 37.7444 57.7796 37.2672L57.6586 35.9954C57.5063 34.4563 57.3487 32.8649 57.4376 31.1929C57.4622 30.7426 57.3584 30.4028 57.1613 30.281C56.9776 30.1683 56.6512 30.2258 56.2875 30.4349C55.4422 30.924 54.7111 32.0987 54.5871 33.1681C54.1913 36.6563 53.1242 39.8727 51.2318 43.2758Z" fill="#C2A95B"/>
<path d="M62.8469 39.9959C62.6378 39.9959 62.4347 39.8891 62.3204 39.6972C62.1479 39.4067 62.2428 39.0311 62.5333 38.8586L65.7437 36.9491C66.0364 36.7751 66.4106 36.8729 66.5823 37.1619C66.7548 37.4524 66.66 37.828 66.3695 38.0005L63.1591 39.9101C63.0605 39.9683 62.953 39.9959 62.8469 39.9959Z" fill="#C2A95B"/>
<path d="M62.4838 43.6134C62.2642 43.6134 62.0522 43.4954 61.9424 43.2878C61.7841 42.9891 61.8983 42.6186 62.197 42.4611L65.7831 40.565C66.0826 40.4052 66.4522 40.5209 66.6098 40.8196C66.7681 41.1184 66.6538 41.4888 66.3551 41.6463L62.7691 43.5424C62.678 43.591 62.5801 43.6134 62.4838 43.6134Z" fill="#C2A95B"/>
<path d="M62.8472 47.0217C62.6261 47.0217 62.4125 46.9022 62.3035 46.6923C62.1474 46.3921 62.2647 46.0232 62.5641 45.8671L65.7947 44.1884C66.0949 44.0316 66.4646 44.1488 66.6199 44.449C66.776 44.7492 66.6587 45.1181 66.3593 45.2742L63.1287 46.953C63.0383 47 62.942 47.0217 62.8472 47.0217Z" fill="#C2A95B"/>
</svg>
