<svg width="128" height="20" viewBox="0 0 128 20" fill="none" xmlns="http://www.w3.org/2000/svg">
<path d="M9.92209 7.09852L1.90397 18.3806H10.1903V19.7031H0V18.8124L8.04494 7.53036H0.268165V6.20783H9.92209V7.09852ZM24.4107 9.25776V6.20783H25.7784V19.7031H24.4107V16.6532C23.8208 17.6968 23.0252 18.5155 22.0241 19.1093C21.0229 19.7031 19.8966 20 18.6452 20C16.7502 20 15.1144 19.3252 13.7378 17.9757C12.3791 16.6082 11.6997 14.9348 11.6997 12.9555C11.6997 10.9761 12.3791 9.31174 13.7378 7.96221C15.0965 6.59471 16.7323 5.91093 18.6452 5.91093C19.8966 5.91093 21.0229 6.20783 22.0241 6.80162C23.0252 7.39541 23.8208 8.21414 24.4107 9.25776ZM14.7032 17.031C15.8116 18.1467 17.1613 18.7045 18.7525 18.7045C20.3257 18.7045 21.6665 18.1467 22.7749 17.031C23.8654 15.9334 24.4107 14.5749 24.4107 12.9555C24.4107 11.336 23.8654 9.97749 22.7749 8.87989C21.6665 7.76427 20.3257 7.20648 18.7525 7.20648C17.1613 7.20648 15.8116 7.76427 14.7032 8.87989C13.6127 9.97749 13.0674 11.336 13.0674 12.9555C13.0674 14.5749 13.6127 15.9334 14.7032 17.031ZM36.0365 5.91093C37.6276 5.91093 38.888 6.40577 39.8176 7.39541C40.7651 8.36707 41.2389 9.67163 41.2389 11.309V19.7031H39.8712V11.309C39.8712 10.0495 39.5226 9.05085 38.8254 8.31309C38.1282 7.57533 37.1628 7.20648 35.9292 7.20648C34.5169 7.20648 33.3816 7.67433 32.5235 8.60999C31.6654 9.54564 31.2363 10.8682 31.2363 12.5776V19.7031H29.8955V6.20783H31.2363V8.77193C32.2017 6.86461 33.8018 5.91093 36.0365 5.91093ZM44.6299 1.86235C44.612 1.4305 44.7818 1.1336 45.1394 0.97166C45.5148 0.79172 45.8813 0.79172 46.2389 0.97166C46.6143 1.1336 46.7931 1.4305 46.7752 1.86235C46.7931 2.31219 46.6143 2.62708 46.2389 2.80702C45.8813 2.98695 45.5148 2.98695 45.1394 2.80702C44.7818 2.62708 44.612 2.31219 44.6299 1.86235ZM46.373 19.7031H45.0321V6.20783H46.373V19.7031ZM64.8254 5.91093C66.3094 5.91093 67.4893 6.37878 68.3652 7.31444C69.2592 8.23212 69.706 9.50969 69.706 11.1471V19.7031H68.3652V11.1471C68.3652 9.90553 68.0434 8.94289 67.3998 8.25911C66.7562 7.55736 65.889 7.20648 64.7986 7.20648C63.565 7.20648 62.5819 7.62931 61.8488 8.47503C61.1338 9.32075 60.7761 10.5533 60.7761 12.1727V19.7031H59.4353V11.1471C59.4353 9.90553 59.1312 8.94289 58.5236 8.25911C57.9159 7.55736 57.0755 7.20648 56.0028 7.20648C54.7692 7.20648 53.7679 7.63833 52.9994 8.50202C52.2308 9.36572 51.8463 10.5893 51.8463 12.1727V19.7031H50.5054V6.20783H51.8463V8.52902C52.7757 6.78364 54.2152 5.91093 56.1637 5.91093C57.1468 5.91093 58.0049 6.15385 58.7381 6.63968C59.4712 7.10753 60.0076 7.78229 60.3471 8.66397C60.812 7.76427 61.4374 7.08054 62.2242 6.61269C63.011 6.14483 63.8777 5.91093 64.8254 5.91093ZM85.2979 9.25776V6.20783H86.6655V19.7031H85.2979V16.6532C84.7079 17.6968 83.912 18.5155 82.9112 19.1093C81.9099 19.7031 80.7836 20 79.5323 20C77.637 20 76.0012 19.3252 74.6249 17.9757C73.2659 16.6082 72.5869 14.9348 72.5869 12.9555C72.5869 10.9761 73.2659 9.31174 74.6249 7.96221C75.9835 6.59471 77.6193 5.91093 79.5323 5.91093C80.7836 5.91093 81.9099 6.20783 82.9112 6.80162C83.912 7.39541 84.7079 8.21414 85.2979 9.25776ZM75.5903 17.031C76.6984 18.1467 78.0483 18.7045 79.6396 18.7045C81.2127 18.7045 82.5535 18.1467 83.6621 17.031C84.7524 15.9334 85.2979 14.5749 85.2979 12.9555C85.2979 11.336 84.7524 9.97749 83.6621 8.87989C82.5535 7.76427 81.2127 7.20648 79.6396 7.20648C78.0483 7.20648 76.6984 7.76427 75.5903 8.87989C74.4995 9.97749 73.9545 11.336 73.9545 12.9555C73.9545 14.5749 74.4995 15.9334 75.5903 17.031ZM92.1231 19.7031H90.7823V0H92.1231V19.7031ZM95.8535 1.86235C95.8358 1.4305 96.0053 1.1336 96.363 0.97166C96.7384 0.79172 97.1048 0.79172 97.4625 0.97166C97.8379 1.1336 98.0165 1.4305 97.9988 1.86235C98.0165 2.31219 97.8379 2.62708 97.4625 2.80702C97.1048 2.98695 96.7384 2.98695 96.363 2.80702C96.0053 2.62708 95.8358 2.31219 95.8535 1.86235ZM97.5966 19.7031H96.2557V6.20783H97.5966V19.7031Z" fill="#C2A95B"/>
<path d="M104.447 18.7568C104.447 19.0991 104.329 19.3874 104.094 19.6216C103.858 19.8558 103.568 19.973 103.224 19.973C102.879 19.973 102.589 19.8558 102.353 19.6216C102.118 19.3874 102 19.0991 102 18.7568C102 18.4144 102.118 18.1261 102.353 17.8919C102.589 17.6577 102.879 17.5405 103.224 17.5405C103.568 17.5405 103.858 17.6577 104.094 17.8919C104.329 18.1261 104.447 18.4144 104.447 18.7568ZM109.556 6.18919V8.83784C110.371 6.94595 111.885 6 114.096 6V7.2973C112.755 7.2973 111.658 7.7207 110.806 8.56757C109.972 9.41443 109.556 10.6216 109.556 12.1892V19.7027H108.196V6.18919H109.556ZM126.641 13.3243V6.18919H128V19.7027H126.641V17.1351C125.662 19.045 124.039 20 121.774 20C120.16 20 118.873 19.5135 117.913 18.5405C116.97 17.5496 116.499 16.2342 116.499 14.5946V6.18919H117.885V14.5946C117.885 15.8558 118.239 16.8558 118.946 17.5946C119.653 18.3333 120.632 18.7027 121.882 18.7027C123.314 18.7027 124.465 18.2342 125.335 17.2973C126.205 16.3604 126.641 15.0361 126.641 13.3243Z" fill="#313132"/>
</svg>
