<svg width="153" height="24" viewBox="0 0 153 24" fill="none" xmlns="http://www.w3.org/2000/svg">
<path d="M11.947 8.51822L2.29253 22.0567H12.2699V23.6437H0V22.5749L9.68676 9.03644H0.322892V7.44939H11.947V8.51822ZM29.3925 11.1093V7.44939H31.0393V23.6437H29.3925V19.9838C28.6821 21.2361 27.7243 22.2186 26.5188 22.9312C25.3133 23.6437 23.9571 24 22.4503 24C20.1686 24 18.1989 23.1903 16.5414 21.5709C14.9054 19.9298 14.0874 17.9217 14.0874 15.5466C14.0874 13.1714 14.9054 11.1741 16.5414 9.55466C18.1774 7.91365 20.147 7.09312 22.4503 7.09312C23.9571 7.09312 25.3133 7.44939 26.5188 8.16194C27.7243 8.87449 28.6821 9.85697 29.3925 11.1093ZM17.7038 20.4372C19.0385 21.776 20.6636 22.4453 22.5795 22.4453C24.4738 22.4453 26.0882 21.776 27.4229 20.4372C28.7359 19.1201 29.3925 17.4899 29.3925 15.5466C29.3925 13.6032 28.7359 11.973 27.4229 10.6559C26.0882 9.31712 24.4738 8.64777 22.5795 8.64777C20.6636 8.64777 19.0385 9.31712 17.7038 10.6559C16.3907 11.973 15.7342 13.6032 15.7342 15.5466C15.7342 17.4899 16.3907 19.1201 17.7038 20.4372ZM43.3909 7.09312C45.3067 7.09312 46.8243 7.68693 47.9436 8.87449C49.0845 10.0405 49.655 11.606 49.655 13.5708V23.6437H48.0082V13.5708C48.0082 12.0594 47.5885 10.861 46.7489 9.97571C45.9094 9.0904 44.747 8.64777 43.2617 8.64777C41.5612 8.64777 40.1942 9.2092 39.161 10.332C38.1277 11.4548 37.6111 13.0418 37.6111 15.0931V23.6437H35.9966V7.44939H37.6111V10.5263C38.7735 8.23754 40.7001 7.09312 43.3909 7.09312ZM53.738 2.23482C53.7165 1.7166 53.921 1.36032 54.3515 1.16599C54.8036 0.950064 55.2449 0.950064 55.6754 1.16599C56.1274 1.36032 56.3427 1.7166 56.3212 2.23482C56.3427 2.77463 56.1274 3.15249 55.6754 3.36842C55.2449 3.58434 54.8036 3.58434 54.3515 3.36842C53.921 3.15249 53.7165 2.77463 53.738 2.23482ZM55.8368 23.6437H54.2224V7.44939H55.8368V23.6437ZM78.0551 7.09312C79.842 7.09312 81.2627 7.65454 82.3173 8.77733C83.3938 9.87854 83.9317 11.4116 83.9317 13.3765V23.6437H82.3173V13.3765C82.3173 11.8866 81.9298 10.7315 81.1549 9.91093C80.3799 9.06883 79.3357 8.64777 78.0228 8.64777C76.5375 8.64777 75.3538 9.15518 74.471 10.17C73.6101 11.1849 73.1794 12.664 73.1794 14.6073V23.6437H71.565V13.3765C71.565 11.8866 71.1988 10.7315 70.4671 9.91093C69.7354 9.06883 68.7235 8.64777 67.432 8.64777C65.9466 8.64777 64.741 9.16599 63.8156 10.2024C62.8901 11.2389 62.4271 12.7072 62.4271 14.6073V23.6437H60.8127V7.44939H62.4271V10.2348C63.5463 8.14037 65.2795 7.09312 67.6257 7.09312C68.8094 7.09312 69.8427 7.38462 70.7254 7.96761C71.6082 8.52903 72.254 9.33875 72.6628 10.3968C73.2227 9.31712 73.9757 8.49665 74.923 7.93522C75.8704 7.3738 76.914 7.09312 78.0551 7.09312ZM102.706 11.1093V7.44939H104.352V23.6437H102.706V19.9838C101.995 21.2361 101.037 22.2186 99.8318 22.9312C98.6262 23.6437 97.2701 24 95.7634 24C93.4813 24 91.5116 23.1903 89.8545 21.5709C88.2181 19.9298 87.4005 17.9217 87.4005 15.5466C87.4005 13.1714 88.2181 11.1741 89.8545 9.55466C91.4903 7.91365 93.4599 7.09312 95.7634 7.09312C97.2701 7.09312 98.6262 7.44939 99.8318 8.16194C101.037 8.87449 101.995 9.85697 102.706 11.1093ZM91.0169 20.4372C92.3511 21.776 93.9765 22.4453 95.8926 22.4453C97.7867 22.4453 99.4011 21.776 100.736 20.4372C102.049 19.1201 102.706 17.4899 102.706 15.5466C102.706 13.6032 102.049 11.973 100.736 10.6559C99.4011 9.31712 97.7867 8.64777 95.8926 8.64777C93.9765 8.64777 92.3511 9.31712 91.0169 10.6559C89.7034 11.973 89.0473 13.6032 89.0473 15.5466C89.0473 17.4899 89.7034 19.1201 91.0169 20.4372ZM110.924 23.6437H109.309V0H110.924V23.6437ZM115.415 2.23482C115.394 1.7166 115.598 1.36032 116.029 1.16599C116.481 0.950064 116.922 0.950064 117.353 1.16599C117.805 1.36032 118.02 1.7166 117.999 2.23482C118.02 2.77463 117.805 3.15249 117.353 3.36842C116.922 3.58434 116.481 3.58434 116.029 3.36842C115.598 3.15249 115.394 2.77463 115.415 2.23482ZM117.514 23.6437H115.9V7.44939H117.514V23.6437Z" fill="#C2A95B"/>
<path d="M124.918 22.4903C124.918 22.906 124.777 23.2561 124.496 23.5405C124.215 23.8249 123.869 23.9672 123.459 23.9672C123.048 23.9672 122.702 23.8249 122.421 23.5405C122.14 23.2561 122 22.906 122 22.4903C122 22.0747 122.14 21.7246 122.421 21.4402C122.702 21.1557 123.048 21.0135 123.459 21.0135C123.869 21.0135 124.215 21.1557 124.496 21.4402C124.777 21.7246 124.918 22.0747 124.918 22.4903ZM131.009 7.22973V10.4459C131.981 8.14865 133.786 7 136.423 7V8.57529C134.823 8.57529 133.515 9.08943 132.5 10.1178C131.506 11.1461 131.009 12.612 131.009 14.5154V23.639H129.388V7.22973H131.009ZM151.379 15.8938V7.22973H153V23.639H151.379V20.5212C150.212 22.8404 148.277 24 145.576 24C143.653 24 142.118 23.4093 140.973 22.2278C139.849 21.0245 139.287 19.4273 139.287 17.4363V7.22973H140.94V17.4363C140.94 18.9678 141.362 20.1821 142.205 21.0792C143.048 21.9762 144.215 22.4247 145.706 22.4247C147.413 22.4247 148.786 21.8558 149.823 20.7181C150.86 19.5805 151.379 17.9723 151.379 15.8938Z" fill="white"/>
</svg>
