<svg width="72" height="96" viewBox="0 0 72 96" fill="none" xmlns="http://www.w3.org/2000/svg">
<path d="M8.90442 23.4083C8.79224 30.5796 6.21519 35.8216 1.01496 39.3942L1.01476 39.3943C0.965319 39.4282 0.877707 39.5293 0.79751 39.6701C0.717955 39.8098 0.6714 39.9437 0.667975 40.0259C0.392725 47.957 0.447375 57.3963 2.18301 65.7877C3.9198 74.1847 7.33031 81.4873 13.7288 85.2059L20.9222 89.3859L25.543 92.0711L26.9423 92.8841L27.2681 93.0735L27.2892 93.0857C27.2892 93.0857 27.2893 93.0857 27.2893 93.0857L27.2926 93.0877C31.958 95.7922 37.599 96.2187 42.9973 95.4717L42.9975 95.4717C43.1679 95.4482 43.3271 95.37 43.4482 95.2496L43.4488 95.2491C63.6554 75.325 73.0119 48.6351 71.2469 15.8974L71.2469 15.8972C71.2409 15.7838 71.2094 15.6789 71.1601 15.5792C71.1551 15.5725 71.1485 15.5632 71.142 15.5515L71.141 15.5497C71.0841 15.4454 70.9979 15.3593 70.8853 15.2869L70.8823 15.285C70.8591 15.2694 70.8426 15.2526 70.832 15.2404C70.8301 15.2383 70.8283 15.2362 70.8267 15.2342L63.1265 10.7526L63.0396 10.7019L63.0284 10.6019C62.9658 10.0421 62.9087 9.47688 62.9087 8.87975C62.9087 8.77122 62.8548 8.61614 62.7635 8.46317C62.6711 8.30829 62.568 8.20142 62.5104 8.16802C62.5104 8.16801 62.5104 8.168 62.5104 8.16799L48.9503 0.307914C48.9502 0.307839 48.95 0.307765 48.9499 0.30769C48.7459 0.190304 48.497 0.168634 48.2723 0.248544C46.4187 0.92685 44.5279 1.67929 42.6525 2.48443L42.6524 2.48446C42.2463 2.65862 42.0589 3.12961 42.2338 3.53487L42.2341 3.53572C42.4067 3.94067 42.8796 4.126 43.2841 3.95461C44.9843 3.22387 46.6982 2.53811 48.3829 1.91295L48.4713 1.88016L48.5528 1.92742L59.8829 8.4948L60.2397 8.70162L59.8563 8.85373C57.5722 9.76015 55.5648 10.6301 54.1385 11.2688C53.4254 11.5882 52.8576 11.8497 52.4733 12.0291C52.2811 12.1188 52.1348 12.1879 52.0392 12.2334C51.9914 12.2561 51.9563 12.2729 51.9346 12.2834L51.9129 12.2939C51.9105 12.2951 51.9109 12.2949 51.9126 12.2941C51.9135 12.2936 51.9147 12.293 51.916 12.2922L51.9227 12.2885C51.9273 12.2856 51.9499 12.269 51.9661 12.2535C51.9809 12.1784 51.9635 12.1138 51.9336 12.0621C51.87 12.0924 51.8326 12.1105 51.8228 12.1153L51.9071 12.2969C41.6379 17.1499 32.0076 23.3663 23.3051 30.2495L23.1983 30.334L23.0805 30.2656L11.3813 23.4667L11.126 23.3184L11.3585 23.1363C19.0198 17.1369 27.1735 11.8446 35.3909 7.65276L35.3912 7.65261C35.7851 7.45252 35.9426 6.97055 35.7413 6.57733L35.7409 6.57663C35.5418 6.18378 35.0575 6.03001 34.6659 6.22807C25.6643 10.8143 16.9885 16.5911 9.21022 22.7938C9.15821 22.8355 9.07962 22.9446 9.01024 23.0867C8.94042 23.2296 8.90532 23.3538 8.90442 23.4083ZM8.90442 23.4083C8.90442 23.4083 8.90442 23.4083 8.90442 23.4083L8.70444 23.4051L8.90442 23.4083ZM27.1424 93.2317C27.1658 93.1881 27.2051 93.1473 27.2693 93.1199L27.3193 93.1032L27.3199 93.1035L27.3206 93.1039C27.3209 93.1041 27.3514 93.2201 27.2974 93.3211C27.2611 93.3004 27.2249 93.2796 27.1888 93.2587C27.2433 93.2903 27.2245 93.2794 27.1424 93.2317ZM0.90171 39.2294C0.728198 39.3483 0.478462 39.7588 0.468116 40.0184L0.90171 39.2294ZM68.0954 15.8983L68.5948 15.7875L68.1527 15.5302L63.7816 12.9852L63.3358 12.7257L63.4902 13.2179C63.8536 14.377 64.4073 15.2062 65.1701 15.6472C65.9257 16.0916 66.9151 16.1599 68.0954 15.8983ZM52.5864 13.7465L52.5839 13.7477C42.5851 18.4682 33.0135 24.5987 24.1091 31.6628L24.0365 31.7204L24.0335 31.813C23.8008 39.009 21.0602 44.5288 15.8963 48.2684L15.817 48.3259L15.8138 48.4239C15.5646 56.0337 15.6347 65.0234 17.2304 72.9979C18.8249 80.9658 21.952 87.9679 27.8574 91.54L27.8576 91.5401C31.7252 93.8736 36.6191 94.6842 42.4488 93.9306L42.516 93.922L42.5641 93.8742C61.9911 74.5843 71.0941 48.8329 69.6959 17.3557L69.6842 17.0936L69.4346 17.1743C68.4738 17.4849 67.5916 17.6485 66.8002 17.6485C65.8742 17.6485 65.0623 17.44 64.3623 17.0295L64.3614 17.029C62.8784 16.1693 61.9609 14.4512 61.5686 11.7869L61.5545 11.6912L61.4707 11.6428L59.8293 10.6958L59.7458 10.6476L59.6561 10.6829C59.5314 10.732 59.4138 10.7782 59.3015 10.8223C57.6642 11.4653 57.1624 11.6624 52.5864 13.7465ZM10.7327 24.9432L10.4557 24.7822L10.4327 25.1017C9.98111 31.3648 7.53849 36.289 3.15758 39.7959L3.21928 39.873C3.17379 39.9264 3.14348 40.0056 3.1738 40.1201L3.17391 40.1202L3.17404 40.1201L3.17425 40.1204L3.17575 40.1213L3.18207 40.1249L3.18293 40.1254L3.25101 40.165L3.30056 40.1938L3.57132 40.3512L4.82621 41.0805L8.8142 43.3982L14.8718 46.9188L14.985 46.9845L15.0906 46.9071C19.809 43.4463 22.217 38.5085 22.4492 31.876L22.4534 31.7563L22.3499 31.6961L10.7327 24.9432ZM2.51588 41.5877L2.22472 41.4185L2.21546 41.7551C2.00636 49.3519 2.16341 58.1601 3.82676 65.9166C5.48886 73.6671 8.66484 80.413 14.5317 83.8232L14.6322 83.6503L14.5317 83.8232L20.7583 87.4404L21.0235 87.154C17.6695 82.2834 15.8609 75.7908 14.9439 68.9204C14.0274 62.053 14.0041 54.8274 14.2071 48.5043L14.2109 48.385L14.1077 48.325L2.51588 41.5877Z" fill="#C2A95B" stroke="#313132" stroke-width="0.4"/>
<path d="M39.5703 3.84661L39.5703 3.84661L39.5713 3.84616C39.9666 3.66171 40.4468 3.83628 40.6311 4.23847L40.6311 4.2386C40.8157 4.64059 40.6404 5.11537 40.2392 5.29956L40.2392 5.29958C39.66 5.56567 39.0829 5.83661 38.506 6.11239L38.506 6.11239L38.5048 6.11295C38.1156 6.30209 37.6313 6.13942 37.4386 5.73771C37.2481 5.33934 37.4168 4.86114 37.8152 4.67052L37.8157 4.6703C38.3983 4.38973 38.985 4.11585 39.5703 3.84661ZM40.8129 4.15515C40.5824 3.65222 39.9828 3.43347 39.4867 3.66491L37.2582 5.82409C37.4991 6.32644 38.1038 6.53015 38.5922 6.29284C39.1684 6.01745 39.7445 5.74694 40.3227 5.48132C40.8246 5.25085 41.0434 4.6571 40.8129 4.15515Z" fill="#C2A95B" stroke="#313132" stroke-width="0.4"/>
<path d="M43.5383 84.9212L43.5384 84.9211C57.5169 69.7274 64.1726 50.3738 63.8684 25.7299L63.8684 25.7296C63.8637 25.3028 63.5235 24.9551 63.095 24.941L63.0949 24.941C61.459 24.8864 60.0614 24.3755 58.9205 23.4088C57.782 22.4441 56.9119 21.0367 56.3081 19.2091M43.5383 84.9212L56.498 19.1464M43.5383 84.9212C43.3964 85.0756 43.1998 85.1679 42.9882 85.179C37.9497 85.4277 33.4503 84.3229 29.8624 80.9116C24.3229 75.6432 21.702 65.6063 21.6883 49.2204L21.4883 49.2206L43.5383 84.9212ZM56.3081 19.2091L56.498 19.1464M56.3081 19.2091C56.3082 19.2091 56.3082 19.2092 56.3082 19.2092L56.498 19.1464M56.3081 19.2091C56.2376 18.996 56.0829 18.823 55.8788 18.7311L55.8783 18.7308C55.6758 18.6389 55.4431 18.6363 55.2363 18.724M56.498 19.1464C56.4102 18.8807 56.2168 18.6639 55.9609 18.5487C55.707 18.4335 55.416 18.4305 55.1582 18.5399C45.9129 22.4651 37.2928 27.6124 29.3008 33.4315C29.1055 33.5731 28.9688 33.7792 28.9141 34.0135M55.2363 18.724C55.2363 18.724 55.2363 18.724 55.2364 18.724L55.1582 18.5399L55.2363 18.724ZM55.2363 18.724C46.0077 22.6422 37.4008 27.7812 29.4185 33.5932L29.4182 33.5934C29.2618 33.7068 29.1526 33.8715 29.1088 34.059M29.1088 34.059C29.1088 34.059 29.1088 34.0589 29.1089 34.0589L28.9141 34.0135M29.1088 34.059L28.9141 34.0135M29.1088 34.059C27.8441 39.4908 25.3441 44.5555 21.8741 48.7063L21.7207 48.578C25.1699 44.452 27.6562 39.4159 28.9141 34.0135M42.998 85.3788C43.2617 85.3651 43.5078 85.2499 43.6855 85.0565C57.7051 69.8182 64.373 50.412 64.0684 25.7274L42.998 85.3788ZM30.6581 34.6699L30.5985 34.7131L30.5811 34.7846C29.2637 40.2017 26.7652 45.2584 23.3335 49.4523L23.288 49.5079L23.2883 49.5797C23.3147 57.2796 23.951 63.5986 25.2197 68.6018C26.4882 73.604 28.3924 77.3053 30.9657 79.7522L31.1035 79.6073L30.9657 79.7522C33.8647 82.5083 37.638 83.7469 42.4983 83.5982L42.583 83.5956L42.6401 83.5329C55.977 68.8766 62.4014 50.2546 62.2762 26.6619L62.2752 26.487L62.1018 26.4646C58.9319 26.0553 56.5585 24.1044 55.1614 20.7185L55.0836 20.5298L54.8966 20.6115C46.2425 24.3889 38.211 29.1994 30.6581 34.6699Z" fill="#C2A95B" stroke="#313132" stroke-width="0.4"/>
<path d="M43.1442 38.104L43.1442 38.104C46.318 36.272 49.187 36.0095 51.2792 37.1913C53.3726 38.3736 54.6097 40.9569 54.62 44.638C54.62 44.638 54.62 44.638 54.62 44.638L54.42 44.6386C54.4434 52.3349 49.0176 61.7401 42.3262 65.6034L43.1442 38.104ZM43.1442 38.104C39.761 40.0573 36.7084 43.4014 34.5051 47.2166C32.3018 51.0318 30.9367 55.3371 30.9485 59.2241L43.1442 38.104ZM42.3442 36.718L42.3442 36.718C46.1329 34.5302 49.5922 34.3771 52.0949 35.8058C54.5972 37.2343 56.208 40.281 56.22 44.6333C56.2316 48.7571 54.7832 53.3525 52.4252 57.4411C50.0672 61.5297 46.8107 65.0926 43.2262 67.1626C39.4258 69.3577 35.9663 69.4984 33.4661 68.0595C30.9658 66.6206 29.3605 63.5651 29.3485 59.2288L29.1485 59.2294L29.3485 59.2288C29.3369 55.11 30.7853 50.519 33.1435 46.4336C35.5017 42.3483 38.7587 38.7877 42.3442 36.718Z" fill="#C2A95B" stroke="#313132" stroke-width="0.4"/>
<path d="M36.6208 57.4199L36.6207 57.4198C36.2362 57.201 36.102 56.7119 36.3204 56.3287C36.5414 55.9443 37.0309 55.8118 37.4108 56.029L37.4111 56.0291L40.0439 57.5291L40.2166 57.6276L40.3161 57.4554L47.6462 44.76L47.6463 44.7598C47.866 44.3781 48.3565 44.2482 48.7384 44.4672C49.1212 44.6884 49.2521 45.1772 49.0304 45.5597L49.0302 45.56L41.204 59.1167L41.2037 59.1172C41.0573 59.3726 40.7892 59.5167 40.512 59.5167C40.377 59.5167 40.2399 59.4829 40.1177 59.4125L40.1169 59.4121L36.6208 57.4199ZM40.1429 57.3554L37.5101 55.8554L48.8382 44.2938C48.3616 44.0204 47.7483 44.1815 47.473 44.66L40.1429 57.3554Z" fill="#C2A95B" stroke="#313132" stroke-width="0.4"/>
</svg>
