<svg width="104" height="104" viewBox="0 0 104 104" fill="none" xmlns="http://www.w3.org/2000/svg">
<path d="M21.7006 90.5364L21.7004 90.5363C15.1203 86.7053 11.4422 78.7552 11.4033 68.0894C11.374 56.8696 15.4044 44.6139 21.7053 33.8946C28.0065 23.1749 36.566 14.0127 45.5725 8.96765L45.575 8.96624C54.9405 3.54598 63.7621 2.7392 70.4249 6.61443C71.6615 7.33417 72.9519 8.0877 74.2579 8.85035C76.9707 10.4345 79.7508 12.058 82.2559 13.4997L82.3556 13.3263L82.2559 13.4997C88.8725 17.3075 92.5659 25.2454 92.5951 35.9138C92.6262 46.7671 88.8179 58.8374 82.6338 69.5621C76.4497 80.2867 67.9008 89.6468 58.4708 95.0914C58.0855 95.3103 57.5961 95.181 57.3791 94.7997L57.3783 94.7983C57.1565 94.4157 57.2875 93.9268 57.6705 93.7056C66.8985 88.3772 75.2426 79.2335 81.2716 68.7789C87.3006 58.3243 91.0255 46.5399 90.9951 35.9186C90.9676 25.9151 87.6023 18.4224 81.4573 14.8864L81.3576 15.0597L81.4573 14.8864C79.2097 13.5934 76.7043 12.9362 74.1274 12.7858L74.125 12.7857C65.9875 12.4098 57.9829 16.1338 50.873 22.1971C43.7617 28.2615 37.5284 36.6798 32.927 45.7318C28.3258 54.7834 25.3501 64.481 24.7651 73.1092C24.1803 81.7327 25.9825 89.3237 30.9837 94.1123L30.9839 94.1124C34.0141 97.0066 37.7387 98.0395 41.1511 98.197C41.5912 98.2173 41.932 98.5912 41.9117 99.033L41.9117 99.0334C41.893 99.4616 41.5387 99.7963 41.1134 99.7963C41.0968 99.7963 41.0874 99.7962 41.079 99.7956L41.0758 99.7955C37.8714 99.6476 33.6349 98.7015 30.1006 95.4436L30.0855 95.4297L30.0679 95.4191C30.0593 95.414 30.0509 95.4098 30.0431 95.4064L21.7006 90.5364ZM29.9867 95.3914C29.9876 95.3915 29.9891 95.3917 29.9907 95.3919L29.9879 95.3915L29.9867 95.3914ZM30.0591 95.4158C30.0601 95.4164 30.0611 95.4169 30.0621 95.4175L30.06 95.4163L30.0591 95.4158ZM69.6205 7.99637L69.6202 7.99618C62.3652 3.78166 53.4885 6.23625 46.364 10.3567C37.6006 15.2692 29.2491 24.2211 23.0961 34.6747C16.9425 45.1292 12.9751 57.1071 13.0033 68.0837L13.0033 68.0839C13.0405 78.0879 16.3919 85.5947 22.5068 89.1544C22.5069 89.1544 22.5069 89.1544 22.507 89.1545L26.4852 91.4776L27.1202 91.8483L26.7605 91.207C23.1425 84.7556 22.4072 76.4172 23.8289 67.5476C25.2502 58.6805 28.8246 49.3021 33.8002 40.7896C38.7758 32.277 45.1474 24.6395 52.1555 19.2489C59.165 13.8572 66.7956 10.7246 74.2964 11.188L74.2978 11.188C74.3142 11.1889 74.3314 11.1898 74.3495 11.1903L74.4564 10.8177L69.6205 7.99637Z" fill="#C2A95B" stroke="#313132" stroke-width="0.4"/>
<path d="M52.86 96.0184L52.8601 96.0184C53.2668 95.8586 53.7331 96.0587 53.8978 96.4711C54.0582 96.8815 53.8554 97.3455 53.4443 97.5074C51.5385 98.2563 49.6102 98.8339 47.712 99.2251C47.6561 99.2362 47.603 99.2416 47.5487 99.2416C47.1783 99.2416 46.8444 98.9809 46.7681 98.604L46.7681 98.604L46.7679 98.6027C46.6774 98.1707 46.9566 97.7471 47.3898 97.658L47.3898 97.658C49.1985 97.2854 51.0395 96.7332 52.86 96.0184Z" fill="#C2A95B" stroke="#313132" stroke-width="0.4"/>
<path d="M59.3494 78.1271L59.2326 78.6299L59.6577 78.3371C64.9903 74.6644 69.7343 69.036 73.1407 62.7618C76.5469 56.4881 78.6242 49.5533 78.6067 43.2613V43.2613C78.5968 40.0601 78.0503 37.2709 76.9704 34.9775L76.9703 34.9772C76.7813 34.5773 76.9531 34.1011 77.3529 33.9137L77.354 33.9131C77.7513 33.7239 78.2294 33.8958 78.417 34.296L78.4171 34.2963C79.5915 36.7916 80.1969 39.8044 80.2067 43.2566C80.2239 49.7224 78.1017 56.8703 74.5988 63.3664C71.0961 69.8621 66.2211 75.6909 60.7493 79.5249L60.3238 79.823L60.8394 79.8871L64.4112 80.3315C64.8507 80.3862 65.1613 80.7854 65.1066 81.2235L65.1066 81.2237C65.0507 81.6772 64.6279 81.9779 64.2182 81.9193L64.2145 81.9189L57.9158 81.1357C57.7409 81.1138 57.649 81.0616 57.5759 80.9981C57.5352 80.9628 57.4972 80.9211 57.4511 80.8679C57.4432 80.8588 57.435 80.8493 57.4265 80.8394C57.3927 80.8001 57.3542 80.7554 57.3116 80.7102C57.2809 80.6505 57.2511 80.5631 57.234 80.4639C57.2151 80.3544 57.2144 80.2469 57.2339 80.1623C57.2339 80.1623 57.2339 80.1623 57.2339 80.1623C57.234 80.1619 57.2341 80.1614 57.2342 80.161L57.2343 80.1607L57.2348 80.1584L57.2697 80.0081L57.4242 79.3428L57.9427 77.1103L58.7831 73.4918C58.7831 73.4918 58.7831 73.4917 58.7831 73.4917C58.8837 73.0597 59.3088 72.7889 59.7424 72.8938L59.7445 72.8943C60.1738 72.9934 60.4427 73.4239 60.3427 73.8543L59.3494 78.1271ZM57.2143 80.156L57.0395 80.1153L57.0552 80.0476C57.1093 80.0584 57.1657 80.089 57.2143 80.156Z" fill="#C2A95B" stroke="#313132" stroke-width="0.4"/>
<path d="M56.9463 32.933L57.0605 32.4415L56.6406 32.7213C51.2107 36.3388 46.3645 41.9907 42.8804 48.3202C39.3965 54.6493 37.2658 61.6721 37.2845 68.0388C37.2963 72.2045 38.2455 75.7493 40.0522 78.2776C40.3083 78.6369 40.2256 79.1357 39.8667 79.3928C39.5015 79.6515 39.0043 79.5649 38.7488 79.2072L38.7488 79.2071C36.7619 76.4268 35.6961 72.5706 35.6845 68.0436L35.6845 68.0435C35.6661 61.4804 37.8558 54.2161 41.458 47.6452C45.06 41.0746 50.0657 35.2133 55.6617 31.4491L56.1052 31.1507L55.5748 31.0847L51.9077 30.6279C51.4684 30.5732 51.1576 30.174 51.2123 29.7348L51.2123 29.7342C51.2659 29.292 51.6699 28.9746 52.099 29.0397L52.099 29.0398L52.1043 29.0404L58.403 29.8246C58.6285 29.8528 58.8316 29.9749 58.9611 30.1605C59.091 30.3467 59.1361 30.5787 59.0846 30.7995L59.0846 30.7996L57.5358 37.4685C57.5358 37.4686 57.5358 37.4686 57.5358 37.4686C57.4333 37.9091 56.988 38.1668 56.5768 38.0666L56.5744 38.066C56.1451 37.9669 55.8762 37.5364 55.9762 37.106L56.9463 32.933Z" fill="#C2A95B" stroke="#313132" stroke-width="0.4"/>
<path d="M58.3087 62.0687L58.3089 62.0693C58.5134 62.4611 58.3607 62.9438 57.9683 63.1479C57.9683 63.1479 57.9682 63.1479 57.9682 63.1479L48.6566 67.9834C48.6566 67.9834 48.6565 67.9835 48.6564 67.9835C48.5383 68.0441 48.4115 68.0736 48.287 68.0736C48.0841 68.0736 47.8842 67.9964 47.7308 67.8486C47.4838 67.6094 47.4168 67.2382 47.5651 66.9283L47.5651 66.9283L54.3943 52.6489C54.6887 52.0651 54.8665 51.5231 54.9159 51.0528C54.9652 50.5832 54.888 50.1644 54.6452 49.8567L54.6451 49.8566C54.4109 49.5604 54.0421 49.3774 53.62 49.2967C53.1961 49.2155 52.7029 49.2338 52.194 49.3544C50.6708 49.7143 48.8683 51.0218 48.3334 53.5942L48.3333 53.5947C48.2448 54.0254 47.8101 54.3012 47.3879 54.2154C46.9551 54.1254 46.6774 53.7021 46.7679 53.2697L46.768 53.2693C47.4572 49.9463 49.8375 48.2664 51.8271 47.7974L51.8273 47.7973C53.5186 47.3963 55.0809 47.8249 55.9015 48.8652L55.9015 48.8653C56.1472 49.1767 56.435 49.6851 56.5112 50.4162C56.5874 51.1471 56.4537 52.1164 55.8311 53.3526L55.831 53.3526L55.8293 53.3563L50.298 64.9227L50.0401 65.462L50.5706 65.1864L57.2308 61.7275L57.2309 61.7274C57.6195 61.5253 58.1058 61.6771 58.3087 62.0687Z" fill="#C2A95B" stroke="#313132" stroke-width="0.4"/>
<path d="M66.03 42.906L66.0291 42.9058C65.6575 42.8184 65.2932 42.9988 65.13 43.3363L65.1298 43.3366L57.835 58.355C57.8349 58.3551 57.8349 58.3551 57.8349 58.3551C57.6834 58.6676 57.7505 59.0425 58.0021 59.2832C58.2556 59.523 58.6338 59.572 58.9383 59.4075L66.03 42.906ZM66.03 42.906C66.3924 42.9896 66.6503 43.3131 66.6503 43.6857V53.0549V53.3915L66.9459 53.2305L67.9565 52.6804C67.9567 52.6803 67.9569 52.6802 67.9571 52.6801C68.3478 52.471 68.8315 52.6119 69.0437 53.0009C69.2546 53.3891 69.1111 53.8743 68.7234 54.0863C68.7233 54.0863 68.7232 54.0864 68.7232 54.0864L66.7549 55.1555L66.6503 55.2123V55.3312V59.9689C66.6503 60.4112 66.2926 60.7689 65.8503 60.7689C65.408 60.7689 65.0503 60.4112 65.0503 59.9689V56.4191V56.0827L64.7547 56.2434L58.9387 59.4073L66.03 42.906ZM64.9459 54.3185L65.0503 54.2617V54.1428V48.0334L64.6704 47.946L60.6372 56.2487L60.3646 56.8098L60.9127 56.5118L64.9459 54.3185Z" fill="#C2A95B" stroke="#313132" stroke-width="0.4"/>
</svg>
